<svg data-name="Layer 1" id="Layer_1" viewBox="0 0 162.38 74.13" xmlns="http://www.w3.org/2000/svg"><title>
    cheers-logo-black</title>
    <path d="M25.28,67C11.21,67,2.4,57.25,2.4,43.45c0-17.8,15.22-35.51,31-35.51,7,0,11.66,4,11.66,10.86C45,29,36.76,38.92,27.68,38.92c-4,0-7.48-2.5-7.48-7.21,0-3.56,2-6.77,5.79-9.53l.89.8c-2,2-3,3.83-3,6.32a6,6,0,0,0,6.41,6.23c6.32,0,11.22-6,11.22-12.81,0-7-4.63-11.57-11.49-11.57C17.62,11.15,7.57,24.5,7.57,39.36c0,13.71,9,24.48,21.27,24.48,4.63,0,8.63-1.34,11.84-4.63.53-.54.8-.89,1.06-.89a.76.76,0,0,1,.71.71c0,.62-1.24,1.78-1.86,2.4C36.67,65.35,30.8,67,25.28,67Z"/>
    <path d="M63.37,66.51c-2.4,0-3-2.05-3-7.12V51.91c0-2-.62-3.11-1.78-3.11-2.22,0-5.07,3.29-7,8.18v7.48l-4.27,2.85V52.62c-1.34,2.32-3.12,4.45-4.9,6.94-.71,1.07-1,1.07-1.33,1.07a.6.6,0,0,1-.62-.62A2,2,0,0,1,41,58.76a54.68,54.68,0,0,0,6.23-9.52V34c0-7.83.27-10.77,2-14.15,1.78-3.65,5.25-6.05,8.36-6.05,2.85,0,4.72,2.22,4.72,5.69,0,4.9-2.76,13-10.77,25.19v8.55c3.47-5.26,5.7-7.66,9.35-7.66,3.11,0,3.82,2,3.82,7.39v5.69c0,3.39.18,4.28,1.16,4.28.8,0,2.49-1.34,4.45-3.74.89-1.07,1.25-1.43,1.6-1.43s.71.18.71.63A9.62,9.62,0,0,1,70.85,61C68.89,63.39,65.86,66.51,63.37,66.51ZM59.19,20.05c0-3.12-1.43-4.54-3-4.54-3.56,0-4.63,5.07-4.63,13.26V41.5C56.43,33.93,59.19,26.19,59.19,20.05Z"/>
    <path d="M88.11,64.64a11.29,11.29,0,0,1-6.32,2c-5.7,0-8-4.36-8-9.43-.71,1-1.25,1.69-1.69,2.23-.89,1.06-1.25,1.06-1.43,1.06a.68.68,0,0,1-.71-.62c0-.36.18-.44.63-1,2.76-2.94,4.8-7.12,5.78-8.54,2.14-2.94,5.43-5,8.63-5,2.41,0,4.19,1.52,4.19,3.74,0,4.36-3.92,8.1-10.15,11.22a6.22,6.22,0,0,0,5.34,2.75,9.79,9.79,0,0,0,7.3-3.82c.53-.63.89-1.07,1.16-1.07a.71.71,0,0,1,.71.71C93.54,60.19,89.18,64,88.11,64.64ZM85.8,50.75A2.83,2.83,0,0,0,83,47.82c-2.94,0-5.16,3.38-5.16,7.12a16.32,16.32,0,0,0,.53,4C79.48,58.05,85.8,55.38,85.8,50.75Z"/>
    <path d="M109.56,64.64a11.32,11.32,0,0,1-6.32,2c-5.7,0-8-4.36-8-9.43-.71,1-1.25,1.69-1.69,2.23-.89,1.06-1.25,1.06-1.43,1.06a.68.68,0,0,1-.71-.62c0-.36.18-.44.62-1,2.76-2.94,4.81-7.12,5.79-8.54,2.14-2.94,5.43-5,8.63-5,2.41,0,4.19,1.52,4.19,3.74,0,4.36-3.92,8.1-10.15,11.22a6.22,6.22,0,0,0,5.34,2.75,9.79,9.79,0,0,0,7.3-3.82c.53-.63.89-1.07,1.16-1.07a.71.71,0,0,1,.71.71C115,60.19,110.63,64,109.56,64.64Zm-2.32-13.89a2.82,2.82,0,0,0-2.84-2.93c-2.94,0-5.17,3.38-5.17,7.12a16.36,16.36,0,0,0,.54,4C100.93,58.05,107.24,55.38,107.24,50.75Z"/>
    <path d="M126.74,66.42c-2.67,0-4.72-2.14-4.72-5.52,0-2.94,1.42-5.43,4.63-10.59a10.09,10.09,0,0,1-2.32.18,16.9,16.9,0,0,1-3.47-.36c-3,5-4.81,7.83-5.87,9.26-.8,1.06-1.25,1.33-1.52,1.33a.69.69,0,0,1-.62-.71c0-.27.09-.53.62-1.25,1.78-2.13,4.81-7.12,7.93-13.61,2.75,1.24,4.62,1.78,6,1.78a6.52,6.52,0,0,0,4.18-1.61l.53.45c-3.64,5.78-5.78,8.81-5.78,13.17,0,2.23,1.25,4.1,3,4.1,1.24,0,3-1.16,5.6-4.28.27-.26.45-.53.71-.53a.77.77,0,0,1,.72.71,7.39,7.39,0,0,1-1.87,2.67C132.7,63.75,130.21,66.42,126.74,66.42Z"/>
    <path d="M144.27,66.6a8.48,8.48,0,0,1-7.75-5,29,29,0,0,1,3.65-3.38l.63.18a7.56,7.56,0,0,0-.09,1.33,4.61,4.61,0,0,0,4.63,4.9c2.76,0,5-2.32,5-6,0-4.09-2.31-6.4-6.59-9.61-1.95,3.12-4.62,7.75-7.21,10.42-.8.89-1.33,1.42-1.78,1.42a.69.69,0,0,1-.71-.62c0-.36.09-.54.71-1.25,2.85-3.2,7.84-10.86,10.6-16.2h1.06c.18,2,.27,2.41,2,3.83a12.83,12.83,0,0,1,4.81,9.79C153.17,62.41,149.43,66.6,144.27,66.6Zm7.47-1.43c-1.15.63-1.51,1.07-2.31,1.07-.27,0-.44-.09-.44-.36s.35-.62.88-1c1.87-1,4.46-3.74,6.5-6.06.45-.44.71-.62.89-.62a.76.76,0,0,1,.71.71c0,.45-.44.89-.8,1.34A24.76,24.76,0,0,1,151.74,65.17Z"/>
</svg>