<svg fill="none" height="18" viewBox="0 0 29 18" width="29" xmlns="http://www.w3.org/2000/svg">
    <path d="M18.3065 2.3996H10.8729V15.758H18.3065V2.3996Z" fill="#FF5F00"/>
    <path d="M11.3433 9.07966C11.3422 7.79315 11.6337 6.52323 12.1959 5.36605C12.758 4.20886 13.5761 3.19474 14.5881 2.40046C13.3349 1.41536 11.8297 0.802744 10.2448 0.632627C8.65978 0.46251 7.05892 0.741751 5.62515 1.43845C4.19137 2.13514 2.98253 3.22118 2.13681 4.57242C1.29108 5.92366 0.84259 7.48558 0.84259 9.07966C0.84259 10.6737 1.29108 12.2357 2.13681 13.5869C2.98253 14.9381 4.19137 16.0242 5.62515 16.7209C7.05892 17.4176 8.65978 17.6968 10.2448 17.5267C11.8297 17.3566 13.3349 16.744 14.5881 15.7589C13.5761 14.9646 12.7581 13.9504 12.1959 12.7933C11.6337 11.6361 11.3422 10.3662 11.3433 9.07966V9.07966Z"
          fill="#EB001B"/>
    <path d="M28.3349 9.07923C28.335 10.6733 27.8865 12.2352 27.0409 13.5864C26.1952 14.9377 24.9864 16.0237 23.5526 16.7204C22.1189 17.4171 20.518 17.6964 18.9331 17.5263C17.3481 17.3561 15.843 16.7435 14.5898 15.7584C15.6009 14.9633 16.4184 13.9491 16.9804 12.7921C17.5425 11.6351 17.8346 10.3655 17.8346 9.07923C17.8346 7.79292 17.5425 6.5234 16.9804 5.3664C16.4184 4.2094 15.6009 3.19512 14.5898 2.40003C15.843 1.41493 17.3481 0.802312 18.9331 0.632197C20.518 0.462083 22.1189 0.741336 23.5526 1.43804C24.9864 2.13474 26.1952 3.22078 27.0409 4.57202C27.8865 5.92325 28.335 7.48517 28.3349 9.07923V9.07923Z"
          fill="#F79E1B"/>
    <path d="M27.5203 14.3433V14.0698H27.6306V14.0141H27.3497V14.0698H27.4601V14.3433H27.5203ZM28.0656 14.3433V14.0135H27.9795L27.8805 14.2403L27.7814 14.0135H27.6953V14.3433H27.7561V14.0945L27.8489 14.309H27.912L28.0048 14.094V14.3433H28.0656Z"
          fill="#F79E1B"/>
</svg>
