<svg fill="none" height="15" viewBox="0 0 44 15" width="44" xmlns="http://www.w3.org/2000/svg">
    <path d="M16.487 0.315747L10.8016 13.8794H7.09237L4.29459 3.05426C4.12474 2.3875 3.97795 2.14323 3.46046 1.86233C2.61706 1.40478 1.22428 0.975497 0 0.708838L0.0821012 0.315747H6.0531C6.81417 0.315747 7.49835 0.822377 7.67115 1.6988L9.14874 9.54705L12.8003 0.315747H16.487ZM31.0205 9.4516C31.0354 5.87149 26.07 5.67449 26.1041 4.07499C26.1147 3.58826 26.5791 3.07077 27.5926 2.93869C28.0954 2.87287 29.4807 2.82266 31.053 3.54574L31.6694 0.669257C30.8239 0.360982 29.7376 0.0669556 28.386 0.0669556C24.9176 0.0669556 22.4767 1.91073 22.4562 4.55086C22.4335 6.50365 24.1977 7.59335 25.5278 8.24225C26.8955 8.90675 27.3544 9.33376 27.3492 9.92815C27.3395 10.838 26.2584 11.24 25.248 11.2556C23.4839 11.2827 22.4609 10.7783 21.6451 10.399L21.0091 13.3707C21.829 13.7469 23.3423 14.0751 24.9113 14.0916C28.5979 14.0916 31.0092 12.2706 31.0205 9.4507V9.4516ZM40.1792 13.8794H43.4243L40.5917 0.315747H37.5962C37.2764 0.31299 36.963 0.406387 36.6969 0.58383C36.4307 0.761274 36.224 1.01458 36.1035 1.31091L30.8375 13.8794H34.5221L35.2535 11.8533H39.7544L40.1792 13.8794ZM36.2639 9.07321L38.1108 3.97977L39.1738 9.07276L36.2639 9.07321ZM21.5006 0.315747L18.599 13.8794H15.0901L17.9928 0.315747H21.5006Z"
          fill="#1434CB"/>
</svg>
